<svg width="186" height="193" viewBox="0 0 186 193" fill="none" xmlns="http://www.w3.org/2000/svg">
<path d="M76.9415 5.25989C78.0547 5.03352 79.1679 4.82712 80.2744 4.59409C85.9803 3.30244 91.6729 1.93086 97.4054 0.759033C98.4187 0.552643 99.5918 1.23843 100.665 1.1785C102.438 1.0853 104.191 0.685837 105.958 0.472778C107.464 0.286346 109.104 -0.239639 110.484 0.126541C118.483 2.27711 126.428 4.64072 134.387 6.95107C135.033 7.1134 135.651 7.37149 136.22 7.71675C140.22 10.34 144.279 12.8568 148.079 15.7065C149.892 17.078 151.172 19.142 152.691 20.9064C153.045 21.3125 153.358 21.7719 153.698 22.1781C157.617 26.6922 161.777 31.0266 165.39 35.7738C167.656 38.75 170.529 39.2493 173.449 38.4836C176.868 37.5981 177.675 40.6208 179.568 41.8659C179.988 42.1389 180.801 45.2349 178.361 46.3335C177.915 46.5399 177.975 47.9581 177.875 48.8236C177.515 51.9662 176.202 55.0156 177.508 58.2914C178.948 61.9001 180.528 65.5354 181.274 69.3105C182.607 76.0884 183.527 82.9728 184.301 89.8439C184.767 93.9187 183.947 98.2197 184.901 102.128C186.787 109.911 183.027 116.636 181.701 123.773C180.901 128.055 179.121 132.143 177.035 136.197C175.422 139.387 173.269 142.136 171.502 145.152C170.689 146.544 168.649 147.15 167.549 148.481C166.116 150.173 165.296 152.416 163.783 154.008C161.43 156.471 158.664 158.535 156.164 160.872C154.438 162.483 153.145 164.727 151.178 165.892C147.119 168.296 142.153 169.474 138.653 172.437C134.774 175.733 128.301 175.493 126.488 181.545C126.168 182.617 124.735 183.696 123.575 184.109C120.369 185.241 117.743 187.697 113.983 187.711C111.484 187.711 108.904 188.603 106.518 189.508C99.5576 192.162 92.0387 193.014 84.6605 191.985C78.2213 191.14 71.6422 191.319 65.1631 190.7C62.2701 190.407 59.4572 189.202 56.6442 188.297C53.6646 187.331 50.585 186.512 47.8054 185.114C44.1125 183.263 40.653 180.933 37.1401 178.762C33.6273 176.592 30.161 174.468 26.7548 172.191C25.4326 171.395 24.2962 170.326 23.4219 169.055C20.4623 164.108 17.676 159.068 14.9164 153.988C12.9366 150.596 11.156 147.093 9.58377 143.495C8.29727 140.279 7.69736 136.797 6.74416 133.441C5.411 128.78 3.6979 124.18 2.74469 119.459C1.99812 115.717 2.19808 111.796 1.91812 107.954C1.7877 107.013 1.59849 106.081 1.35154 105.164C1.05825 103.699 0.331662 102.148 0.564965 100.77C2.32473 90.5031 4.9244 80.3362 5.99092 70.0096C7.03745 59.9492 11.3835 51.5401 17.5161 44.2761C23.8752 36.7525 29.7011 28.5764 38.9266 23.6361C44.8324 20.4802 49.7985 15.5733 55.1777 11.4386C55.791 10.9725 56.3109 10.2202 56.9975 10.0204C63.5499 8.13618 70.1291 6.35185 76.7082 4.53418C76.8349 4.7406 76.8815 5.02687 76.9415 5.25989ZM105.858 92.6137C110.09 90.0703 113.517 87.9531 117.043 85.9557C119.109 84.7905 119.149 83.339 118.136 81.528C115.91 77.5332 113.777 73.485 111.41 69.5768C109.85 67.0001 107.884 64.6765 106.224 62.1597C103.165 57.5457 98.892 53.7039 97.3522 48.1112C97.2988 47.9181 97.0722 47.7783 96.9388 47.5985C94.4458 44.1829 91.9928 40.7274 89.4398 37.3585C87.8801 35.3078 86.5002 32.8709 84.4405 31.5127C79.0279 27.9373 73.2753 24.8546 67.8627 21.712C66.9184 22.2676 66.0141 22.8882 65.1564 23.5696C64.1032 24.5283 62.5767 25.5204 62.3301 26.7188C61.3236 31.6058 58.9972 36.2931 60.3637 41.6196C60.7503 43.1443 59.1372 45.1217 58.6173 46.946C58.1707 48.5373 58.2573 50.3283 57.6041 51.8064C55.9976 55.4151 55.891 58.7508 58.3973 61.9866C58.795 62.481 59.0404 63.08 59.1039 63.711C59.2439 68.0388 59.3505 72.3665 59.3372 76.7009C59.4132 78.1413 59.1861 79.5815 58.6706 80.9288C57.1975 84.1446 60.5037 85.403 61.2703 87.6734C61.3702 87.9664 63.1567 88.0995 63.8566 87.7333C70.3224 84.2911 76.5749 80.4094 83.1873 77.3134C87.3941 75.2843 91.8921 73.923 96.5189 73.2787C101.285 72.6728 105.798 78.8648 105.498 84.1314C105.324 86.7014 105.691 89.318 105.858 92.6137ZM81.5942 95.2769C78.228 96.3755 75.4084 97.2011 72.6554 98.2264C71.4756 98.6659 70.5024 99.6845 69.3225 100.144C67.1895 100.97 65.1564 105.351 66.0763 107.528C67.4894 110.857 70.6623 113.274 71.069 117.229C71.1823 118.327 72.6488 119.226 73.3153 120.338C74.7218 122.681 77.1348 125.105 77.1015 127.469C77.0415 131.364 78.8746 131.83 81.7675 132.189C87.2268 132.855 89.2799 135.125 89.4732 140.379C89.6798 146.031 95.7723 149.627 100.625 147.037C105.078 144.646 109.717 142.569 114.043 139.979C118.709 137.189 123.195 134.087 127.581 130.878C129.288 129.626 130.141 127.715 128.441 125.551C127.901 124.852 127.775 123.733 127.688 122.788C126.855 115.551 126.062 108.307 125.228 100.763L116.496 106.01L114.843 105.117C114.223 105.877 113.85 106.656 113.237 107.042C110.644 108.66 108.044 110.284 105.324 111.662C102.779 112.934 100.156 114.046 97.4721 114.991C95.3724 115.744 93.146 116.137 90.9863 116.749C90.7863 116.802 90.7597 117.335 90.5397 117.515C89.9731 117.974 89.3732 118.673 88.7333 118.74C85.3671 119.093 82.4808 117.348 81.0876 113.999C80.5477 112.701 80.561 111.176 80.2744 109.765C79.6078 106.349 78.6079 102.987 80.681 99.6113C81.3076 98.5327 81.2343 97.0813 81.5942 95.257V95.2769ZM131.714 72.6395C132.263 72.4372 132.787 72.1712 133.274 71.8472C137.567 68.3717 142.033 65.0826 146.039 61.3008C149.908 57.5851 153.531 53.6218 156.884 49.4361C159.331 46.44 158.551 44.4026 155.764 41.7128C153.325 39.3492 151.572 36.2931 149.239 33.803C147.65 32.1634 145.828 30.7659 143.833 29.655C142.446 28.8694 140.5 29.0292 139.167 28.1903C137.32 27.0251 136.04 24.8613 134.127 23.9425C130.181 22.0715 125.968 20.7599 121.869 19.2218C121.568 19.0789 121.256 18.961 120.936 18.869C116.536 18.0101 112.077 17.3576 107.737 16.2524C104.338 15.3868 100.778 16.6052 97.2921 14.255C95.739 13.2163 91.9262 15.5399 89.2332 16.3123C92.7794 18.7225 96.0723 20.9197 99.3252 23.1834C100.499 23.9891 101.613 24.8792 102.658 25.8466C105.531 28.5698 108.417 31.2729 111.144 34.1359C112.477 35.5408 113.43 37.3051 114.603 38.8698C116.55 41.4797 118.723 43.9433 120.462 46.6797C122.462 49.7891 124.462 52.9849 125.708 56.4138C127.042 60.0558 130.721 63.3449 128.295 67.6327L131.714 72.6395ZM126.342 168.815C130.561 166.924 134.434 165.24 138.26 163.489C141.046 162.197 144.219 161.285 146.439 159.321C151.445 154.893 156.524 150.339 160.504 145.039C163.67 140.825 168.236 137.156 168.583 131.111C168.709 128.873 169.729 126.703 170.209 124.453C171.382 119.006 172.529 113.553 173.542 108.08C173.695 107.241 173.035 106.256 172.562 104.751C171.849 105.77 171.402 106.083 171.409 106.429C171.456 108.919 170.869 110.657 167.969 111.31C166.25 111.822 164.718 112.827 163.563 114.199C161.734 116.285 160.126 118.554 158.764 120.97C157.151 123.8 156.391 127.782 152.898 128.421C149.405 129.06 148.972 131.683 147.305 133.661C145.859 135.372 143.873 137.789 142.12 137.795C140.02 137.795 140.006 138.854 139.2 139.833C138.733 140.399 137.74 140.498 136.994 140.865C136.614 141.038 136.054 141.131 135.907 141.424C135.027 143.155 135.967 144.327 135.194 146.151C133.901 149.134 130.181 156.704 128.921 159.707L127.688 159.321C128.128 156.378 129.288 149.48 129.894 145.445L123.395 149.387C122.855 149.72 122.209 150.412 121.776 150.299C117.536 149.201 116.043 153.821 112.67 154.62C111.537 154.893 110.717 156.484 109.424 157.809C113.623 159.394 115.99 163.083 120.569 163.382C122.242 163.489 123.775 166.045 125.315 167.537C125.7 167.927 126.044 168.355 126.342 168.815ZM15.583 107.328C15.0497 108.613 14.3098 109.698 14.5365 109.991C16.5362 112.362 15.7163 114.892 15.5896 117.555C15.503 119.332 17.2294 121.117 17.6227 123.008C18.3893 126.723 17.4294 130.997 21.5089 133.514C21.8888 133.754 21.7355 134.766 21.9555 135.372C23.022 138.241 24.0152 141.144 25.2884 143.907C25.5817 144.527 26.9948 144.979 27.8547 144.919C31.1876 144.68 34.4871 143.848 37.7934 143.887C45.6257 143.974 53.1247 143.142 60.1837 138.188C59.5029 135.925 58.6951 133.702 57.7641 131.53C56.4309 128.82 54.6511 126.363 53.278 123.687C51.1249 119.472 48.9852 115.231 47.1655 110.87C46.0389 108.167 43.1993 107.541 41.9128 108.413C37.9133 111.13 33.8072 108.959 29.8344 109.618C26.7682 110.124 23.1686 108.686 20.5023 109.771C17.836 110.857 17.2294 109.558 15.583 107.348V107.328ZM44.2992 34.1826L43.086 33.357C40.793 35.2279 38.42 36.9922 36.2336 39.003C34.2719 40.8893 32.4097 42.876 30.6543 44.9553C28.4279 47.492 26.1549 49.9688 24.8551 53.2179C23.5553 56.4671 20.7023 59.33 21.2956 63.3382C21.2956 63.3981 21.0489 63.5046 21.1223 63.4514L20.2224 61.7602C17.8094 73.3985 15.603 84.0448 13.2766 95.2436C14.4624 95.5951 15.6826 95.8183 16.9161 95.9094C21.6755 95.8029 26.4349 95.5166 31.1942 95.3168C33.6006 95.217 36.0603 95.4034 38.4 94.9573C39.3732 94.7709 40.793 93.2795 40.793 92.3806C40.6821 89.7544 40.3386 87.1431 39.7664 84.5774C38.6599 78.5851 37.3934 72.5928 40.853 66.9069C41.0396 66.6006 40.713 66.0147 40.813 65.5753C41.5462 62.6457 39.0265 60.3754 38.9599 57.9585C38.8466 53.5842 39.7264 49.1232 40.7063 44.8088C41.5062 41.2134 43.0727 37.7446 44.2992 34.2025V34.1826ZM35.7736 160.786L35.327 162.117C39.1332 165.147 42.6594 168.596 46.8122 171.092C51.1516 173.756 56.031 175.467 60.6903 177.564C62.8567 178.543 64.9831 179.841 67.2628 180.307C71.0532 180.973 74.8756 181.441 78.7146 181.712C83.3807 182.165 88.12 182.997 92.7861 182.777C98.0454 182.537 103.258 181.299 108.497 180.527C110.857 180.174 113.23 179.907 115.603 179.601L115.543 178.702C113.203 178.822 111.397 176.871 108.431 178.483C105.951 179.814 102.258 180.074 99.4385 179.408C95.2657 178.423 90.9663 176.938 88.2467 173.03C87.2408 171.452 86.0748 169.981 84.7671 168.642C84.1606 168.069 82.5674 167.743 81.9542 168.129C79.9955 169.346 77.764 170.055 75.4617 170.193C73.462 170.4 71.5555 171.798 70.0757 169.761C67.6361 166.385 67.6627 162.683 69.5158 160.32C70.9756 158.449 72.1821 156.398 73.5153 154.487C69.6825 150.772 67.6561 150.492 63.7833 152.809C61.2703 154.314 58.8572 156.251 56.1243 157.064C51.4582 158.455 46.5255 159.161 41.6929 160.06C39.7331 160.453 37.7467 160.566 35.7736 160.786ZM139.793 120.065C139.353 119.652 139.467 119.812 139.513 119.792C148.699 116.31 152.911 108.28 157.191 100.357C158.644 97.6938 159.191 94.2782 161.19 92.1943C163.43 89.8639 166.71 88.3725 169.776 87.0675C171.509 86.3285 172.389 85.8491 171.982 83.8584C170.742 77.7396 169.609 71.5942 168.409 65.3422C167.176 66.8336 166.03 68.2186 164.75 69.7765C164.217 68.9709 163.843 68.3917 163.45 67.7791C161.737 69.5169 161.89 73.4718 157.917 71.9537C157.251 74.0311 156.998 76.6676 155.611 78.3455C154.058 80.223 151.432 81.2017 149.319 82.6399C148.652 83.066 148.185 84.1912 147.645 84.1779C145.646 84.138 145.646 84.0048 144.559 85.4563L143.793 84.1247C142.4 85.8758 140.88 87.5669 139.627 89.4511C138.873 90.583 138.053 92.0145 138.113 93.2662C138.343 96.9777 138.759 100.675 139.36 104.345C139.88 107.827 142.526 111.07 139.9 114.885C139.173 115.957 139.793 117.961 139.793 120.065Z" fill="#7C5DF8"/>
</svg>
