<svg width="168" height="131" viewBox="0 0 168 131" fill="none" xmlns="http://www.w3.org/2000/svg">
<path d="M155.416 23.2974C157.408 23.825 158.959 24.0504 160.355 24.6371C163.964 26.1625 165.007 30.029 163.036 33.2048C162.07 34.7559 161.67 36.6298 160.902 38.3073C160.35 39.4266 159.722 40.5074 159.019 41.5425C158.742 41.977 157.965 42.3311 158.015 42.6943C158.275 45.7423 155.355 46.8828 154.156 49.0341C153.409 50.3553 152.793 51.7509 151.994 53.0431C151.114 54.4683 149.977 55.7587 149.147 57.2475C147.796 59.6634 146.694 62.1653 145.344 64.5811C144.444 66.1842 143.187 67.5945 142.312 69.212C141.245 71.1953 140.439 73.3152 139.461 75.3527C138.364 77.6486 137.206 79.9118 135.874 82.5879C133.743 82.3581 132.706 83.5333 133.156 86.2605C133.316 87.2328 132.443 88.3204 132.125 89.3635C131.842 90.1823 131.255 91.2653 131.576 91.8606C132.622 93.791 131.112 94.8656 130.586 96.3156C129.554 99.1414 128.989 102.158 127.759 104.892C126.35 108.217 124.535 111.359 122.351 114.254C121.887 114.843 120.692 115.548 119.947 116.461C119.382 117.147 118.227 117.37 117.357 117.871C115.329 118.982 113.558 120.469 112.142 122.248C110.86 123.835 108.195 124.377 106.071 125.424C105.741 125.379 104.571 125.032 104.467 125.227C102.729 128.5 99.398 128.184 96.3543 128.578C95.0493 128.744 93.6394 128.792 92.4725 129.294C87.4313 131.506 82.9046 130.234 77.7653 128.404C70.2584 125.732 67.9358 119.63 65.7566 113.796C64.3449 110.015 64.2752 105.349 67.1291 101.389C68.4082 99.6174 68.2865 96.9402 69.2531 94.8816C70.0516 93.1686 71.458 91.7119 72.6842 90.216C76.024 86.1818 80.421 83.609 85.3407 81.6437C91.1493 79.2191 97.5689 78.3382 103.946 79.0907C107.928 79.5744 111.819 80.8455 115.74 81.9424C116.728 82.2207 117.476 83.4714 118.199 84.0962C120.576 80.5707 122.018 76.3128 124.066 72.5467C124.798 71.2026 125.558 69.8799 126.313 68.5554C127.409 66.7936 128.305 64.9195 128.986 62.9644C129.815 60.2355 129.804 57.2737 130.817 54.6084C130.889 54.3361 131.049 54.0951 131.273 53.9188C131.852 53.5423 132.625 54.0748 133.333 54.216C134.995 54.5602 136.111 52.6631 136.323 51.0527C136.535 49.4423 136.526 47.5422 137.891 46.6248C138.331 46.3331 138.862 46.1822 139.286 45.8675C141.159 44.4628 139.506 41.2733 140.72 39.3059C141.2 38.532 142.071 38.0436 142.759 37.4742C143.446 36.9048 144.037 35.9502 143.699 35.0893C140.731 34.9851 137.765 34.8047 134.801 34.5481C132.097 34.3104 130.381 33.4401 127.913 32.3616C126.557 31.7655 125.159 30.6938 123.821 30.7095C117.968 30.7838 112.142 31.2017 106.278 31.4332C102.596 31.5721 98.9368 31.644 95.2795 31.7108C93.5508 31.7355 92.1874 32.1749 91.6791 33.9595C91.6327 34.1629 91.5441 34.354 91.4185 34.5215C91.293 34.689 91.1329 34.8296 90.948 34.9348C89.0381 35.6234 88.0922 36.9568 88.2581 38.9285C88.3955 40.5098 85.7331 44.6168 84.2845 44.9172C83.8091 44.9434 83.3301 44.8871 82.8702 44.7509C80.35 49.7951 78.6355 55.0487 74.3349 58.8312C74.0818 59.055 73.761 59.4746 73.8285 59.7171C75.0274 63.9201 72.1832 66.5918 70.3528 69.7643C69.1074 71.8936 68.8653 74.5718 68.0441 76.9632C67.7359 77.8541 68.4161 80.1249 65.9277 78.7566C65.5117 79.714 64.7769 80.665 64.7517 81.6307C64.6932 83.3404 64.8338 84.7901 63.6786 86.4836C61.6263 89.5446 60.8511 93.1686 56.971 95.2629C54.4459 96.6266 52.8185 99.6675 51.1388 102.177C48.1714 106.605 44.0075 109.38 38.943 111.168C36.2165 112.134 33.6702 113.594 30.8816 114.319C27.8772 115.107 24.6723 115.757 21.5761 115.603C19.3787 115.494 17.1332 114.106 15.0582 113.013C13.1545 112.003 11.6044 110.216 9.61717 109.482C4.55879 107.611 3.72947 103.04 2.01318 99.1769C-0.142616 94.3257 0.0116879 89.3799 2.29688 84.56C3.08659 82.89 3.20704 80.9135 3.65938 79.0807C3.87759 78.2048 3.90966 77.1491 4.45475 76.5189C7.64086 72.7891 11.0563 69.2367 14.2045 65.4764C17.9497 61.0059 23.6417 59.9421 28.7524 57.9851C32.7609 56.4736 37.2711 56.5408 41.3284 58.1725C44.9099 59.5153 48.5387 60.5112 50.7595 63.9665C51.1834 64.6321 52.2883 64.9047 53.2232 65.4415C56.9271 57.1857 64.7076 51.6432 67.5951 42.736L57.831 43.21C57.831 43.21 57.704 43.9272 57.5754 44.7015C57.1646 44.6458 56.8352 44.6875 56.6402 44.5509C56.1185 44.2032 55.5517 43.3728 55.1955 43.4745C51.942 44.125 52.5219 41.7308 52.2242 40.1402C51.4414 35.9599 53.8339 33.3337 56.7235 30.741C58.276 29.3522 58.8342 26.9507 60.3523 25.5038C64.4239 21.6306 68.8624 18.1149 72.9521 14.2594C74.2871 12.9914 74.7205 10.8983 76.0231 9.63647C79.9028 6.03043 84.3524 3.03484 89.217 0.754146C89.4893 0.618395 89.7888 0.5377 90.0978 0.516805C90.4069 0.495907 90.719 0.53528 91.0156 0.632556C96.2979 3.15185 101.866 2.07958 107.301 2.2301C119.003 2.61664 130.703 2.76068 142.402 2.9272C144.747 2.95994 147.083 2.68418 149.42 2.52965C153.059 2.2892 156.634 2.39 160.099 3.96359C160.889 4.32343 161.997 3.93981 162.95 4.03884C164.265 4.17667 166.185 4.03909 166.72 4.76644C167.414 5.70398 167.486 7.64899 166.922 8.68226C166 10.3696 164.228 11.5848 163.031 13.1543C161.116 15.6629 159.391 18.3185 157.548 20.8809C156.896 21.7162 156.133 22.4673 155.416 23.2974ZM15.9117 89.0104C15.67 93.211 17.6587 96.7244 20.2862 99.6168C22.6967 102.279 25.9422 104.785 30.0451 103.027C32.7528 101.854 35.308 100.393 37.6643 98.669C38.877 97.7037 39.7204 96.3773 40.0686 94.8878C40.945 90.8837 44.1295 87.6838 43.9817 83.3312C44.0819 82.696 44.4299 82.1281 44.9555 81.7421C49.5406 77.9601 44.7259 75.7524 43.1219 73.0353C42.671 72.4047 42.0558 71.8972 41.3408 71.5657C40.4657 71.1189 39.419 70.9931 38.5618 70.5294C35.8911 69.075 33.6933 66.954 30.0296 67.6874C27.1683 68.2544 25.7207 70.233 23.7126 71.6257C22.6582 72.3623 20.8472 73.0101 20.7317 73.9042C20.5058 75.9442 19.7482 77.8811 18.5288 79.5368C16.7287 82.1142 16.6868 85.8246 15.9117 89.0104ZM146.086 11.9224L145.507 11.0935C142.389 10.9317 139.271 10.7526 136.148 10.6063C131.523 10.3901 126.869 10.4641 122.275 9.93001C116.337 9.23655 110.491 9.60716 104.616 9.95622C103.761 10.0121 102.784 10.3316 102.061 10.041C98.023 8.40762 93.4956 8.381 90.9168 12.2113C89.339 14.5486 87.1548 16.5376 85.2107 18.6559C85.0187 18.8605 84.3736 18.7468 84.2663 18.9519C83.8389 19.7497 83.0809 20.7502 83.3158 21.4196C83.5333 21.8446 83.854 22.2151 84.2499 22.4988C84.6459 22.7825 85.105 22.9708 85.5873 23.0473C93.2034 23.1449 100.822 23.0417 108.433 23.0509C115.881 23.0558 123.324 23.1629 130.765 23.1019C131.658 23.0937 132.601 22.4339 133.377 21.8893C135.476 20.4089 137.531 18.8709 139.54 17.275C141.756 15.5275 143.916 13.7144 146.086 11.9224ZM94.2401 90.673C92.5713 91.7851 91.1143 92.7053 89.7385 93.6882C89.2667 94.013 88.8468 94.4016 88.4913 94.8424C87.6578 95.8861 86.9562 97.0388 86.0487 98.0337C85.4031 98.7445 84.0484 99.1061 83.8118 99.8776C82.3314 104.647 81.6211 109.712 84.7996 114.058C85.8911 115.543 87.5355 117.53 90.2859 118.141C96.039 119.422 98.9349 115.621 102.397 112.898C105.162 110.735 104.836 106.984 106.18 104.064C106.437 103.513 106.868 102.86 106.769 102.359C105.611 97.4781 102.015 94.164 98.4009 90.8841C98.3033 90.7985 98.0587 90.8753 97.8804 90.8655L94.2401 90.673Z" fill="#7C5DF8"/>
</svg>
