<svg width="31" height="18" viewBox="0 0 31 18" fill="none" xmlns="http://www.w3.org/2000/svg">
<path d="M22.46 5.37988L24.9444 1.07622C25.011 0.960697 25.0292 0.823513 24.995 0.694623C24.9608 0.565733 24.877 0.455608 24.7619 0.388292C24.705 0.354915 24.6421 0.333153 24.5767 0.324266C24.5114 0.315378 24.445 0.319543 24.3812 0.336518C24.3175 0.353494 24.2578 0.382943 24.2056 0.423159C24.1533 0.463375 24.1096 0.513559 24.0769 0.570804L21.5615 4.93003C19.641 4.05257 17.4795 3.56412 15.1548 3.56412C12.8301 3.56412 10.6687 4.05316 8.74819 4.93003L6.2328 0.570804C6.16578 0.455377 6.05565 0.371301 5.92664 0.337074C5.79763 0.302846 5.6603 0.32127 5.54487 0.388292C5.42944 0.455315 5.34537 0.565446 5.31114 0.694458C5.27691 0.823469 5.29534 0.960794 5.36236 1.07622L7.8409 5.37988C3.55889 7.69872 0.656828 12.0351 0.177734 17.1115H30.1284C29.6493 12.0351 26.7473 7.69872 22.46 5.37988ZM8.2767 12.9056C8.02842 12.9056 7.78571 12.8319 7.57926 12.694C7.37282 12.5561 7.21192 12.36 7.11691 12.1306C7.02189 11.9012 6.99703 11.6488 7.04547 11.4053C7.09391 11.1618 7.21347 10.9381 7.38903 10.7625C7.5646 10.587 7.78828 10.4674 8.03179 10.419C8.27531 10.3705 8.52772 10.3954 8.75711 10.4904C8.98649 10.5854 9.18255 10.7463 9.32049 10.9528C9.45843 11.1592 9.53206 11.4019 9.53206 11.6502C9.5319 11.9831 9.39959 12.3023 9.1642 12.5377C8.92881 12.7731 8.60959 12.9054 8.2767 12.9056ZM22.0236 12.9056C21.7755 12.9045 21.5333 12.83 21.3276 12.6914C21.1218 12.5529 20.9618 12.3565 20.8676 12.127C20.7734 11.8975 20.7492 11.6453 20.7983 11.4021C20.8473 11.1589 20.9673 10.9357 21.143 10.7607C21.3188 10.5857 21.5425 10.4666 21.7859 10.4186C22.0293 10.3706 22.2814 10.3958 22.5105 10.4909C22.7396 10.5861 22.9353 10.747 23.073 10.9533C23.2107 11.1597 23.2842 11.4022 23.2842 11.6502C23.2841 11.8153 23.2515 11.9787 23.1882 12.1312C23.1249 12.2837 23.0322 12.4222 22.9153 12.5387C22.7985 12.6553 22.6598 12.7478 22.5071 12.8107C22.3545 12.8736 22.191 12.9059 22.0259 12.9056H22.0236Z" fill="white"/>
</svg>
