<svg width="24" height="24" viewBox="0 0 24 24" fill="none" xmlns="http://www.w3.org/2000/svg">
<path d="M12.4313 0.879822C6.0561 0.879822 0.890625 6.0453 0.890625 12.4205C0.890625 18.7957 6.0561 23.9611 12.4313 23.9611C18.8065 23.9611 23.9719 18.7957 23.9719 12.4205C23.9719 6.0453 18.8065 0.879822 12.4313 0.879822ZM8.05202 17.4639C7.9812 17.5846 7.87982 17.6847 7.75809 17.7538C7.63636 17.823 7.49856 17.8589 7.35855 17.858C7.21584 17.8592 7.07562 17.8207 6.95359 17.7467C6.86274 17.694 6.78317 17.624 6.71947 17.5405C6.65576 17.457 6.60917 17.3618 6.58236 17.2602C6.55555 17.1587 6.54906 17.0529 6.56326 16.9488C6.57745 16.8448 6.61205 16.7446 6.66508 16.6539L7.45283 15.3443C7.49264 15.2767 7.54943 15.2207 7.61758 15.1818C7.68572 15.143 7.76285 15.1226 7.8413 15.1227H7.95773C8.5291 15.1227 8.9289 15.4664 9.04534 15.7992L8.05202 17.4639ZM14.7214 14.8878L9.56261 14.8935H6.1339C6.02602 14.8939 5.91918 14.8725 5.81984 14.8304C5.72051 14.7883 5.63076 14.7265 5.55604 14.6487C5.48132 14.5709 5.42318 14.4787 5.38515 14.3778C5.34712 14.2768 5.32999 14.1692 5.33481 14.0614C5.3513 13.6286 5.72894 13.301 6.15914 13.301H8.6445L11.591 8.28542L10.6368 6.65994C10.422 6.28951 10.5173 5.80109 10.8857 5.56821C10.9765 5.50948 11.0782 5.46972 11.1848 5.45132C11.2914 5.43292 11.4006 5.43626 11.5058 5.46114C11.6111 5.48602 11.7102 5.53193 11.7973 5.5961C11.8843 5.66028 11.9575 5.74139 12.0124 5.83458L12.5225 6.70579H12.5281L13.0387 5.83458C13.0937 5.74188 13.1667 5.6612 13.2536 5.59734C13.3404 5.53349 13.4392 5.48777 13.544 5.46291C13.6489 5.43806 13.7577 5.43457 13.8639 5.45266C13.9701 5.47075 14.0717 5.51005 14.1624 5.56821C14.5287 5.80109 14.623 6.28951 14.4066 6.66149L13.4524 8.28697L12.5251 9.86814L10.5111 13.3025V13.3082H13.4792C13.8512 13.3082 14.3175 13.5081 14.506 13.8296L14.5225 13.8631C14.6889 14.1459 14.7832 14.3401 14.7832 14.623C14.7805 14.7148 14.76 14.8053 14.7229 14.8894L14.7214 14.8878ZM18.7271 14.8935H17.3304V14.8991L18.3515 16.6359C18.4614 16.8188 18.495 17.0375 18.4452 17.245C18.3953 17.4524 18.2661 17.6321 18.0852 17.7452C17.9598 17.8216 17.8158 17.8621 17.6689 17.8621C17.5293 17.862 17.392 17.8259 17.2705 17.7571C17.149 17.6883 17.0473 17.5892 16.9754 17.4695L15.4664 14.9007L14.5287 13.3035L13.319 11.2355C13.1438 10.9402 13.0485 10.6044 13.0427 10.261C13.0368 9.91774 13.1205 9.57882 13.2855 9.27771C13.5246 8.85576 13.7075 8.74499 13.7075 8.74499L16.3984 13.2963H18.7122C19.145 13.2963 19.5164 13.6292 19.5365 14.0563C19.5407 14.1649 19.5229 14.2732 19.4841 14.3747C19.4454 14.4762 19.3865 14.5689 19.311 14.6471C19.2356 14.7253 19.1451 14.7874 19.045 14.8297C18.9449 14.8721 18.8373 14.8938 18.7287 14.8935H18.7271Z" fill="#898989"/>
</svg>
