<svg width="16" height="17" viewBox="0 0 16 17" fill="none" xmlns="http://www.w3.org/2000/svg">
<path d="M7.86084 5.12814C5.90883 5.12814 4.33433 6.70264 4.33433 8.65465C4.33433 10.6067 5.90883 12.1812 7.86084 12.1812C9.81285 12.1812 11.3873 10.6067 11.3873 8.65465C11.3873 6.70264 9.81285 5.12814 7.86084 5.12814ZM7.86084 10.9473C6.5994 10.9473 5.56815 9.91915 5.56815 8.65465C5.56815 7.39014 6.59633 6.36196 7.86084 6.36196C9.12535 6.36196 10.1535 7.39014 10.1535 8.65465C10.1535 9.91915 9.12228 10.9473 7.86084 10.9473ZM12.3541 4.98389C12.3541 5.4412 11.9858 5.80643 11.5316 5.80643C11.0743 5.80643 10.7091 5.43813 10.7091 4.98389C10.7091 4.52965 11.0774 4.16134 11.5316 4.16134C11.9858 4.16134 12.3541 4.52965 12.3541 4.98389ZM14.6898 5.81871C14.6376 4.71687 14.386 3.74086 13.5788 2.93673C12.7746 2.1326 11.7986 1.88093 10.6968 1.82568C9.56118 1.76123 6.15744 1.76123 5.02183 1.82568C3.92306 1.87786 2.94706 2.12953 2.13986 2.93366C1.33266 3.73779 1.08405 4.7138 1.02881 5.81564C0.964355 6.95124 0.964355 10.355 1.02881 11.4906C1.08098 12.5924 1.33266 13.5684 2.13986 14.3726C2.94706 15.1767 3.91999 15.4284 5.02183 15.4836C6.15744 15.5481 9.56118 15.5481 10.6968 15.4836C11.7986 15.4314 12.7746 15.1798 13.5788 14.3726C14.3829 13.5684 14.6346 12.5924 14.6898 11.4906C14.7543 10.355 14.7543 6.95431 14.6898 5.81871ZM13.2227 12.7091C12.9833 13.3106 12.5199 13.7741 11.9152 14.0165C11.0098 14.3756 8.8614 14.2928 7.86084 14.2928C6.86028 14.2928 4.70878 14.3726 3.80643 14.0165C3.20487 13.7771 2.74142 13.3137 2.49895 12.7091C2.13986 11.8036 2.22273 9.6552 2.22273 8.65465C2.22273 7.65409 2.14293 5.50258 2.49895 4.60024C2.73835 3.99867 3.2018 3.53523 3.80643 3.29276C4.71184 2.93366 6.86028 3.01653 7.86084 3.01653C8.8614 3.01653 11.0129 2.93673 11.9152 3.29276C12.5168 3.53216 12.9803 3.99561 13.2227 4.60024C13.5818 5.50565 13.499 7.65409 13.499 8.65465C13.499 9.6552 13.5818 11.8067 13.2227 12.7091Z" fill="#898989"/>
</svg>
