<svg width="23" height="22" viewBox="0 0 23 22" fill="none" xmlns="http://www.w3.org/2000/svg">
<path d="M16.679 0.943085C14.3204 0.943085 13.3236 2.06858 11.681 2.06858C9.99685 2.06858 8.71225 0.951274 6.66835 0.951274C4.66774 0.951274 2.53433 2.1727 1.17953 4.25345C-0.722802 7.18768 -0.399896 12.7139 2.68116 17.4218C3.78325 19.1071 5.25505 20.9972 7.18546 21.0176H7.22056C8.89827 21.0176 9.39667 19.9191 11.7056 19.9062H11.7407C14.015 19.9062 14.4713 21.0112 16.142 21.0112H16.1771C18.1075 20.9907 19.6583 18.8965 20.7604 17.2177C21.5536 16.0103 21.8484 15.4042 22.4568 14.0383C17.9999 12.3466 17.2839 6.02827 21.6917 3.60589C20.3462 1.92116 18.4556 0.945424 16.6732 0.945424L16.679 0.943085Z" fill="white"/>
</svg>
