<svg width="212" height="190" viewBox="0 0 212 190" fill="none" xmlns="http://www.w3.org/2000/svg">
<path d="M209.644 24.75C209.527 24.2463 206.357 24.3114 204.61 24.43C203.776 24.4881 203.006 25.3228 202.19 25.7607C199.904 26.9826 197.672 29.0646 195.307 29.229C187.644 29.7764 179.928 29.5765 173.113 25.1684C170.6 23.5404 167.72 24.0327 166.113 26.6194C165.277 27.9433 164.6 29.3608 164.096 30.8424C162.391 36.0507 163.039 37.4937 167.758 40.5012C169.185 41.4063 170.36 42.7032 171.822 43.9618L165.07 48.6287C164.428 47.8234 163.333 47.0036 163.473 46.5459C163.907 45.1609 164.057 43.7031 163.915 42.2598C163.772 40.8164 163.339 39.4171 162.642 38.1453C161.776 36.4155 161.579 34.3413 161.132 32.4051C160.531 29.8456 160.245 27.1776 159.349 24.7257C158.247 21.7093 157.159 18.4211 155.096 16.1222C153.691 14.5628 152.808 13.1524 152.562 11.2896C152.236 8.56942 149.48 5.08444 146.93 4.10329C144.869 3.27197 142.857 2.32226 140.906 1.25881C138.425 -0.0472452 135.841 -0.55595 133.441 0.940611C130.809 2.56878 127.631 2.95709 125.346 5.59128C122.71 8.63399 118.891 10.6159 116.153 13.616C111.022 19.1564 108.395 26.2479 105.222 32.9394C104.1 35.3487 103.244 37.8718 102.667 40.4646C101.996 43.4359 101.789 46.5104 101.302 49.5278C100.778 52.8652 100.168 56.1873 99.6054 59.512L98.6977 59.8436C97.8996 58.409 97.3511 56.7433 96.2514 55.5988C94.4252 53.6544 92.3813 51.9256 90.1599 50.4465C86.7393 48.2375 83.1896 46.234 79.5297 44.4466C77.5581 43.5952 75.4815 43.0092 73.3545 42.704C66.2379 41.3653 59.149 39.6633 51.9622 39.0101C46.1696 38.4607 40.1734 38.6522 34.972 42.299C32.0397 44.3302 28.9046 46.0622 25.8934 47.9689C23.727 49.3537 21.3746 50.6132 19.4652 52.3172C17.1155 54.3888 15.1102 56.8544 12.9875 59.1629C11.4462 60.8325 9.84014 62.4524 8.43087 64.227C4.84931 68.7415 6.82378 75.5714 2.02843 79.6163C1.83936 84.5841 1.74249 89.5849 1.33259 94.5334C0.860639 100.318 2.70903 105.614 4.75347 110.752C7.46492 117.606 6.93747 125.743 12.8252 131.343C13.0208 131.584 13.1601 131.866 13.2331 132.167C15.0426 136.992 18.2404 140.789 21.7647 143.906C18.5658 148.408 15.4 152.744 12.3817 157.172C9.28739 161.722 6.30406 166.338 3.3411 170.973C1.70732 173.523 -0.0132158 176.164 0.967435 179.378C1.28822 180.421 2.22556 181.724 3.15192 181.992C3.74135 182.087 4.34484 182.05 4.91812 181.882C5.49141 181.714 6.01998 181.42 6.46507 181.022C9.56319 177.89 12.4532 174.555 15.4044 171.277C20.6352 165.48 25.7447 159.608 31.1246 153.963C31.9654 153.082 34.0817 152.749 35.3533 153.084C37.6993 153.782 39.9432 154.784 42.0274 156.064C45.8253 158.249 49.3963 160.836 53.2483 162.895C57.673 165.277 62.2881 167.23 66.8305 169.349C70.5123 171.069 74.1107 173.074 77.938 174.388C85.7427 177.061 93.6939 179.295 101.548 181.83C105.828 183.212 109.979 185.028 114.294 186.27C117.758 187.264 121.371 187.684 124.945 188.377C127.046 188.769 129.159 189.103 131.269 189.466L131.695 188.603C130.935 187.895 130.297 186.915 129.399 186.523C125.575 184.854 121.606 183.479 117.803 181.776C111.933 179.169 106.168 176.336 100.304 173.707C99.1442 173.184 97.7218 173.277 96.4883 172.882C94.1412 172.126 90.9402 171.85 89.7909 170.204C88.8043 168.749 87.4018 167.624 85.7654 166.976C80.183 164.497 74.5556 162.187 69.0642 159.555C67.0788 158.601 65.4706 156.869 63.6463 155.57C60.7949 153.525 58.6906 150.016 54.7 150.887C53.973 149.94 53.5489 149.035 52.8362 148.529C51.4841 147.613 50.0685 146.794 48.6001 146.078C47.8832 145.707 46.9122 145.115 46.3185 145.319C43.716 146.223 44.355 143.017 42.785 142.724C43.1673 141.631 43.223 140.138 43.9879 139.525C46.7678 137.296 49.8116 135.351 52.7118 133.305C53.1205 133.016 53.5184 132.697 53.9025 132.377C56.2222 130.443 58.2647 127.604 60.9214 126.793C63.9924 126.004 66.6344 124.048 68.2835 121.344C69.2556 119.835 71.0439 118.842 72.73 117.386C73.4094 121.257 73.7782 124.734 74.6357 128.087C76.1188 133.663 79.1947 135.792 84.2616 134.227C87.9825 133.074 92.1131 131.598 94.7346 128.954C97.7535 125.898 100.489 122.579 104.027 120.047C107.746 117.355 111.464 114.664 115.18 111.973C117.292 110.441 119.405 108.909 121.503 107.336C123.262 106.027 124.276 103.957 126.499 103.038C127.937 102.439 129.071 101.152 130.447 100.349C131.207 99.9049 132.503 100.105 132.997 99.5374C134.622 97.6773 135.96 95.5621 137.507 93.5972C137.884 93.1605 138.399 92.8663 138.966 92.7641C141.775 92.351 142.643 90.0277 144.14 88.1079C145.185 86.7461 146.963 85.9433 148.961 84.5L147.486 90.2641C146.415 94.408 145.606 98.6491 144.182 102.669C142.758 106.688 140.377 110.537 138.933 114.631C137.071 119.883 135.76 125.328 134.138 130.672C132.635 135.7 130.773 140.66 129.507 145.754C128.523 149.733 128.934 154.168 127.432 157.883C124.948 164.029 125.715 170.261 125.503 176.483C125.467 177.609 126.277 179.533 127.054 179.742C127.749 179.88 128.465 179.863 129.152 179.691C129.839 179.52 130.48 179.198 131.028 178.75C134.72 175.086 136.973 170.223 137.378 165.046C137.75 159.69 139.32 154.484 141.973 149.811C143.653 146.857 144.712 143.558 145.783 141.04C146.671 140.143 147.467 139.705 147.665 139.079C149.216 134.07 150.702 129.043 152.124 124.001C153.007 120.932 153.836 117.863 154.44 114.743C155.014 111.761 160.313 110.284 157.197 106.144C157.197 106.144 157.598 105.925 157.629 105.773C157.81 104.914 157.932 104.043 158.085 103.107C160.32 103.044 161.794 102.105 161.709 99.5502C161.64 98.2157 161.646 96.8782 161.728 95.5441C162.001 92.6321 162.327 89.7404 162.672 86.4617C164.329 85.7495 164.728 84.0975 163.188 82.0211C162.608 81.2397 161.673 80.2152 161.823 79.4937C162.386 77.1293 163.121 74.8091 164.023 72.5514C164.344 71.9606 164.795 71.4496 165.341 71.0568C167.634 69.0127 170.236 67.2289 172.179 64.9057C173.604 63.1921 174.676 61.774 177.02 62.777C178.42 58.9663 181.65 57.6396 184.745 59.3813C182.953 64.2875 182.728 69.6252 184.101 74.6595C185.054 78.3102 186.705 79.3731 189.718 77.4525C191.494 76.3169 193.483 74.3905 193.916 72.486C194.883 68.0937 194.938 63.5082 195.402 58.9998C195.439 58.6263 195.757 58.2901 195.888 57.9158C196.444 56.3795 196.993 54.8348 197.535 53.2817C197.908 52.1991 197.958 50.7813 198.69 50.0803C200.324 48.5171 201.59 46.9349 201.693 44.5845C201.71 44.1185 202.072 43.3194 202.369 43.2711C205.141 42.8313 204.282 40.3724 205.091 38.8174C206.435 36.2266 207.82 33.4879 209.918 31.4951C212.587 28.9268 210.154 26.8567 209.644 24.75ZM151.975 49.7611C152.976 52.6477 152.551 56.0752 152.531 59.2552C152.525 59.9903 151.636 60.8484 150.96 61.4288C145.208 66.3833 139.354 71.208 133.653 76.2303C131.372 78.2503 129.414 80.6452 127.317 82.8777C127.176 83.0225 127.135 83.311 126.976 83.3889C121.828 85.8832 119.28 90.9399 115.618 94.8704C114.383 96.208 113.551 97.8984 112.449 99.3609C109.027 103.984 105.795 108.797 101.102 112.298C98.7181 114.075 96.2207 115.688 93.0318 117.913C93.2882 111.301 93.8384 105.621 93.6845 99.9521C93.6016 96.7632 93.0859 93.2127 89.6126 91.4959C88.5511 91.0331 87.3823 90.87 86.2335 91.0243C79.259 91.7932 73.5011 95.9099 67.72 99.122C61.1455 102.777 55.6659 108.405 51.2304 114.898C48.0536 119.551 43.8451 123.501 40.1283 127.792C38.7189 129.42 37.3734 131.132 35.9908 132.796C34.725 134.305 33.6748 134.722 32.5186 132.546C30.859 129.392 29.0273 126.333 27.0317 123.38C26.2956 122.316 24.7981 121.71 23.7819 120.995C23.2506 119.666 22.6466 118.367 21.9726 117.104C20.7152 114.997 19.542 112.993 20.3032 110.323C20.377 109.829 20.3315 109.325 20.1706 108.853C20.0097 108.381 19.738 107.954 19.3781 107.608C16.2774 105.302 15.203 102.142 15.1578 98.5262C15.1443 97.6847 15.8875 96.8665 16.0734 95.9855C16.4321 94.1882 17.1033 92.2767 16.8195 90.5676C16.0877 86.1695 19.4246 83.4173 20.735 79.8727C21.0794 78.987 21.3403 78.0919 21.691 77.004C25.3604 74.4302 28.33 70.8191 30.7789 66.6785C31.3476 65.8045 32.1437 65.1011 33.0819 64.644C36.0709 63.1519 39.0636 61.5785 42.6374 62.1988C43.2737 62.3129 44.3829 62.021 44.6537 61.5554C46.5169 58.3353 49.6252 59.9855 52.177 59.4729C55.2787 58.8195 58.3361 57.7157 61.476 57.2949C65.6245 56.7455 69.8106 56.3356 73.7753 58.5927C75.6005 59.6387 77.6682 60.2694 79.6316 61.0716C85.8712 63.6305 90.0879 68.7348 94.9011 73.0945C94.9783 73.1596 94.9827 73.3179 95.0594 73.3632C100.442 76.4286 102.033 81.4789 102.643 87.2077C102.974 89.045 103.954 90.7019 105.405 91.8772C106.353 92.6438 108.635 92.7631 109.721 92.1331C111.696 90.9917 113.017 89.1225 112.138 86.371C111.057 82.9538 109.791 79.4707 109.538 75.9441C109.317 72.8722 110.518 69.7211 110.795 66.587C110.923 65.3273 110.239 64.0043 110.139 62.6879C110.116 62.3542 110.164 62.0193 110.28 61.705C110.395 61.3907 110.575 61.104 110.809 60.8636C112.643 59.4668 112.953 57.6809 113.009 55.4943C113.112 51.2045 114.918 47.1717 115.608 43.0609C116.297 38.95 118.079 35.6729 119.991 32.4949C121.829 29.4241 120.753 24.9985 124.447 23.042C127.577 21.2917 130.87 19.8517 134.281 18.7426C135.231 18.4552 136.764 20.5478 138.181 21.3165C141.931 23.2787 143.16 27.0085 145.312 30.3012C149.334 36.3164 149.738 43.2934 151.975 49.7611Z" fill="#7C5DF8"/>
</svg>
