<svg width="28" height="27" viewBox="0 0 28 27" fill="none" xmlns="http://www.w3.org/2000/svg">
<path d="M3.2793 3.29625V23.5439C3.27943 23.5878 3.29253 23.6308 3.31696 23.6673C3.34139 23.7038 3.37605 23.7323 3.4166 23.7492C3.45715 23.7661 3.50179 23.7706 3.54491 23.7622C3.58803 23.7539 3.62772 23.7329 3.65901 23.7021L14.2017 13.4206L3.65901 3.13808C3.62772 3.10724 3.58803 3.08632 3.54491 3.07794C3.50179 3.06957 3.45715 3.07411 3.4166 3.091C3.37605 3.1079 3.34139 3.13638 3.31696 3.1729C3.29253 3.20941 3.27943 3.25232 3.2793 3.29625V3.29625Z" fill="#898989"/>
<path d="M18.6229 9.19593L5.40367 1.91295L5.39542 1.90831C5.1677 1.78466 4.95131 2.09276 5.13782 2.27205L15.5002 12.1805L18.6229 9.19593Z" fill="#898989"/>
<path d="M5.13842 24.5692C4.95089 24.7485 5.16727 25.0566 5.39603 24.933L5.40427 24.9283L18.6224 17.6454L15.4998 14.6597L5.13842 24.5692Z" fill="#898989"/>
<path d="M23.9591 12.1325L20.2676 10.0995L16.7966 13.4205L20.2676 16.74L23.9591 14.7085C24.9632 14.1537 24.9632 12.6874 23.9591 12.1325Z" fill="#898989"/>
</svg>
