<svg width="15" height="15" viewBox="0 0 15 15" fill="none" xmlns="http://www.w3.org/2000/svg">
<path d="M6.28535 2.39581C5.42912 2.39581 4.59212 2.64971 3.88019 3.12541C3.16826 3.6011 2.61338 4.27723 2.28572 5.06828C1.95805 5.85933 1.87232 6.72978 2.03936 7.56956C2.2064 8.40934 2.61872 9.18072 3.22416 9.78617C3.82961 10.3916 4.60099 10.8039 5.44077 10.971C6.28055 11.138 7.151 11.0523 7.94205 10.7246C8.7331 10.3969 9.40923 9.84207 9.88492 9.13014C10.3606 8.41821 10.6145 7.58121 10.6145 6.72498C10.6144 5.57684 10.1583 4.47574 9.34645 3.66388C8.53459 2.85202 7.43349 2.39589 6.28535 2.39581V2.39581Z" stroke="white" stroke-opacity="0.65" stroke-width="0.881873" stroke-miterlimit="10"/>
<path d="M9.51514 9.95483L12.5386 12.9783" stroke="white" stroke-opacity="0.65" stroke-width="0.881873" stroke-miterlimit="10" stroke-linecap="round"/>
</svg>
