<svg width="106" height="139" viewBox="0 0 106 139" fill="none" xmlns="http://www.w3.org/2000/svg">
<path d="M55.4086 138.459C54.4276 136.651 53.3258 135.12 52.7543 133.411C52.2565 131.91 52.3479 130.212 52.195 128.584C52.1019 127.599 52.0002 126.609 51.9755 125.623C51.9531 123.725 52.0413 121.892 51.3972 119.988C50.8956 118.51 51.264 116.731 51.2829 115.088C51.3183 113.168 51.4037 111.247 51.4698 109.31C51.4743 108.806 51.5193 108.303 51.6046 107.805C51.9995 105.928 52.4258 104.06 52.9308 101.769C52.2505 102.157 51.8769 102.239 51.7593 102.459C50.7316 104.34 49.6683 106.211 48.773 108.157C48.0533 109.726 46.992 110.695 45.297 111.087C44.2698 111.324 43.8758 111.002 43.7829 110.006C43.4954 106.83 43.2785 103.65 42.7896 100.51C42.3287 97.582 41.5119 94.7138 40.9345 91.8053C40.6905 90.5351 40.5503 89.2468 40.5151 87.9532C40.455 86.1637 40.2775 84.3221 40.6126 82.5858C41.1954 79.5414 40.4906 76.5948 40.2606 73.6118C40.1958 72.7495 39.9547 71.9217 38.6766 72.4919C38.2328 72.6206 37.7602 72.6081 37.3251 72.4562C34.6203 71.7207 31.9456 70.8648 29.2187 70.2185C27.9194 69.916 26.5118 70.0555 25.1761 69.854C24.0869 69.6344 23.011 69.3554 21.9532 69.0184C21.4833 68.8888 21.0228 68.7204 20.5491 68.6242C19.7791 68.4683 19.0173 68.3383 18.2433 68.2266C17.767 68.1562 17.2574 68.0034 16.8118 68.1091C15.57 68.3961 14.4774 68.4498 13.283 67.7173C12.5945 67.2961 11.5243 67.3749 10.634 67.4073C9.74359 67.4398 9.22176 67.4982 8.83665 66.4552C8.66774 65.9798 7.66012 65.7564 6.99127 65.5219C6.03747 65.1956 5.03535 65.0348 4.08022 64.6588C3.67151 64.5062 3.41409 64.0017 2.94279 63.5044C2.78248 63.4874 1.83902 63.5795 1.75172 63.3499C1.35061 62.2906 -0.610685 62.0589 0.360999 60.2171C1.22869 58.5584 1.96001 57.5256 4.1003 57.243C5.13987 57.1132 6.36137 56.6825 7.44018 56.8012C11.229 57.2176 14.8945 56.508 18.5754 55.8579C21.97 55.2593 25.3738 54.6899 28.7475 53.98C32.4325 53.207 36.0896 52.2892 39.7536 51.4156C40.0634 51.328 40.3612 51.2023 40.6399 51.0414C40.9903 48.0707 41.3899 45.3347 41.5932 42.593C41.81 39.7577 42.3308 36.9724 41.7929 34.0407C41.4542 32.236 42.2478 30.2077 42.586 28.2882C43.2339 24.6548 43.9294 21.0349 44.536 17.4074C44.8678 15.4792 44.5114 13.1762 45.4697 11.6782C47.236 8.91217 47.4368 6.32142 46.7353 3.30582C46.5735 2.603 47.4993 1.49062 48.1622 0.786951C48.825 0.0832791 49.8035 0.623388 50.1555 1.6983C50.6595 3.28612 51.3206 4.82407 51.8934 6.39009C52.3273 7.56052 52.7456 8.7383 53.1483 9.92345C54.0453 12.5339 54.9303 15.1517 55.8176 17.7652C55.8506 17.8691 55.8775 18.0107 55.9505 18.059C58.3036 19.5817 57.7243 22.6142 59.3314 24.5561C60.2302 25.6397 60.7814 27.0017 61.5304 28.2151C62.4876 29.7663 64.0456 31.2018 64.312 32.858C64.593 34.6059 66.1446 35.1356 66.6613 36.6158C67.1779 38.0959 68.8005 39.2465 69.8421 40.6101C70.3178 41.1724 70.6167 41.8616 70.702 42.5925C70.7373 44.1111 71.6401 43.9817 72.5312 43.6453C77.763 41.6843 83.2506 41.0969 88.7434 40.4577C89.1914 40.4049 89.6806 40.7429 90.1521 40.9006C89.8263 41.3042 89.5865 41.8879 89.1655 42.0823C85.5581 43.7469 81.9272 45.3641 78.2729 46.9339C77.4073 47.3052 76.407 47.3546 75.5151 47.6771C73.9353 48.25 73.8263 48.928 74.7794 50.2624C76.8351 53.152 78.8293 56.0861 81.0605 59.3132C82.0541 57.6538 82.8725 56.2145 83.7575 54.8149C85.0116 52.8298 86.3054 50.8679 87.5906 48.9015C89.0861 46.6218 90.4264 44.2162 92.1254 42.1006C94.3329 39.3626 96.8135 36.8381 99.2191 34.2587C100.383 32.9901 101.614 31.7833 102.906 30.6435C103.377 30.233 104.141 30.1516 104.771 29.923C104.735 30.5027 104.857 31.15 104.637 31.6488C103.821 33.6147 102.897 35.5354 101.871 37.4024C99.5201 41.4833 97.1182 45.5269 93.5621 48.7717C92.6739 49.5826 92.2293 50.8604 91.5508 51.9121C90.0027 54.2872 88.4127 56.6326 86.8947 59.0232C86.5291 59.7038 86.2152 60.4104 85.9553 61.1371C85.7297 61.6519 85.6255 62.3677 85.2292 62.64C83.3309 63.9574 84.6517 65.1108 85.4035 66.0946C87.4096 68.7032 89.4991 71.2568 91.6856 73.7188C93.0095 75.2108 94.5733 76.4944 96.0359 77.8673C96.1138 77.9426 96.2912 77.9793 96.3061 78.0603C96.7989 80.5095 99.5159 80.9088 100.638 82.6291C102.397 85.3092 105.029 87.5512 105.41 91.0223C105.529 92.0782 106.092 93.3077 105.71 94.1226C105.406 94.7551 103.972 94.9244 103.003 95.1392C102.666 95.2138 102.167 94.8682 101.859 94.5874C98.8084 91.7883 94.6864 91.5026 91.0711 90.0553C90.2035 89.7052 89.4816 89.0086 88.6685 88.5126C87.9521 88.0716 87.1249 87.2476 86.4806 87.3628C84.3562 87.7297 82.7975 86.4624 81.0037 85.8844C79.8054 85.5142 78.463 85.5186 77.7867 83.9783C77.5902 83.5295 75.9857 83.6385 75.0294 83.6562C74.8926 83.6567 74.8151 84.5927 74.6249 85.0606C73.8349 87.0091 72.9683 88.9212 72.2137 90.8907C71.0502 94.1028 69.9152 97.3141 68.8088 100.525C67.1953 105.247 65.6455 109.989 64.0729 114.727C63.2285 117.265 62.4121 119.812 61.5601 122.348C61.0519 123.857 60.5577 125.376 59.9395 126.845C59.4738 127.954 58.9009 128.986 59.5881 130.198C59.6743 130.408 59.677 130.644 59.5955 130.857C58.836 132.924 58.1454 135.027 57.2297 137.023C56.9371 137.645 56.0209 137.993 55.4086 138.459ZM73.8412 73.8073C74.9727 71.107 76.0613 68.6348 76.9999 66.11C77.1489 65.7053 76.6371 65.035 76.37 64.5229C76.1344 64.0758 75.7981 63.6858 75.5242 63.2544C73.1317 59.4852 70.7887 55.679 68.3347 51.9544C67.7187 51.024 67.1541 49.6198 65.5263 50.1437C64.2663 50.5436 63.0234 51.0204 61.806 51.5319C58.6729 52.841 55.2758 53.1365 52.0516 54.1243C49.5135 54.9014 48.6629 55.6038 48.6406 57.4517C48.6268 59.9218 48.7429 62.3903 48.9887 64.8472C49.0265 65.2498 49.8572 65.7331 50.4014 65.8928C52.5451 66.5062 54.7916 66.8189 56.8697 67.5889C59.595 68.5932 61.9762 70.5109 65.1653 70.1955C66.0392 70.1189 66.9075 70.3813 67.5881 70.9277C69.0571 72.3664 70.8966 72.6797 72.751 73.074C72.9816 73.108 73.1815 73.3519 73.8412 73.8073ZM47.8234 100.07C49.2111 98.1996 50.5069 96.6409 51.5988 94.9396C52.6907 93.2384 53.5469 91.3618 54.669 89.676C55.2846 88.7173 56.1008 87.901 57.0616 87.283C57.4286 87.1053 57.8289 87.0064 58.2362 86.9929C58.6435 86.9794 59.0487 87.0516 59.4253 87.2047C59.8464 87.3963 60.0718 88.447 60.0262 89.0977C59.984 89.8045 59.3814 90.4712 59.2946 91.185C58.9276 94.3075 58.4171 97.4433 58.4429 100.566C58.4588 102.273 57.2188 103.678 57.8175 105.508C58.2793 106.962 57.9578 108.469 57.3651 110.098C56.8122 111.624 57.7503 113.661 57.9509 115.484C57.9786 116.242 57.9463 117.002 57.8542 117.756C58.4423 117.634 58.6949 117.453 58.765 117.22C59.2158 115.701 59.5954 114.161 60.0624 112.648C61.1003 109.312 62.1858 105.99 63.2389 102.657C63.4692 101.93 63.5677 101.163 63.8368 100.455C64.8466 97.8257 65.9017 95.214 66.9245 92.5911C67.023 92.3454 66.9835 92.0505 67.0637 91.7927C67.5901 90.103 68.0475 88.3887 68.7034 86.7436C69.236 85.3915 70.0911 84.1585 70.6366 82.8238C71.1324 81.5941 70.484 80.9814 69.1312 81.1571C67.5904 81.3423 66.0352 81.618 65.1549 79.7529C64.9517 79.317 64.2271 78.9751 63.6894 78.8813C62.2396 78.6267 60.7413 78.6733 59.3115 78.3909C58.1931 78.1705 57.194 77.6333 55.9454 77.7402C55.3129 77.8016 54.6131 77.2088 53.5909 76.7576C53.4609 75.6444 52.4968 75.2856 50.9696 75.3093C49.057 75.3446 48.5031 75.6312 48.4559 77.6049C48.4383 78.2645 48.4106 79.0168 48.6953 79.5734C49.2919 80.7493 48.7443 81.2484 47.6921 81.679C48.8497 84.0208 49.6056 86.5723 48.7197 89.0589C47.8902 91.4167 48.5104 93.8469 47.7326 96.1633C47.367 97.1908 47.7454 98.4396 47.8234 100.07ZM50.762 22.0971C50.9479 22.853 51.163 23.3602 51.1741 23.8607C51.2021 25.2147 51.1584 26.5696 51.0432 27.9197C50.7911 30.5303 50.3687 33.1378 50.1829 35.7417C50.0457 37.7366 50.0549 39.7382 50.2106 41.7305C50.3683 43.7821 50.6978 45.8078 49.6928 47.7602C49.5117 48.2498 49.374 48.7539 49.2813 49.267L64.0476 46.0415C59.6955 37.5402 55.5912 29.5249 51.4648 21.4737L50.762 22.0971ZM27.0189 59.5434L27.0728 60.0196L40.5891 62.8776C40.8295 62.0006 41.2595 61.1422 41.2378 60.302C41.2161 59.4617 40.8171 58.534 40.4423 57.7165C40.3135 57.5632 40.1487 57.4439 39.9622 57.3691C39.7757 57.2942 39.5734 57.2662 39.373 57.2874C38.0881 57.5523 36.8461 58.0431 35.5576 58.2627C32.7184 58.7493 29.8647 59.1226 27.0189 59.5434ZM80.5634 70.8443L79.1007 75.1795L87.5705 80.0827L87.6631 79.8638L80.5634 70.8443Z" fill="#7C5DF8"/>
</svg>
