<svg width="15" height="15" viewBox="0 0 15 15" fill="none" xmlns="http://www.w3.org/2000/svg">
<g clip-path="url(#clip0_211_3665)">
<path d="M10.581 4.47544C10.3518 4.2461 10.2175 3.93867 10.2052 3.61463C10.1928 3.29058 10.3032 2.97382 10.5143 2.72768C10.5318 2.7072 10.5409 2.68089 10.5397 2.65401C10.5386 2.62712 10.5274 2.60166 10.5083 2.58272L9.2921 1.36518C9.272 1.34509 9.24474 1.3338 9.21631 1.3338C9.18789 1.3338 9.16063 1.34509 9.14053 1.36518L7.20206 3.30365C7.13054 3.37515 7.07666 3.46234 7.0447 3.55829V3.55829C7.01286 3.65446 6.95905 3.7419 6.88754 3.81365C6.81602 3.8854 6.72877 3.93951 6.6327 3.97167V3.97167C6.53669 4.00366 6.44942 4.05753 6.37779 4.12903L1.4065 9.09921C1.38641 9.11931 1.37512 9.14657 1.37512 9.17499C1.37512 9.20342 1.38641 9.23068 1.4065 9.25078L2.62266 10.4669C2.6416 10.486 2.66707 10.4973 2.69395 10.4984C2.72083 10.4995 2.74715 10.4905 2.76762 10.473C3.01371 10.2617 3.33054 10.1511 3.6547 10.1633C3.97885 10.1756 4.2864 10.3099 4.51578 10.5393C4.74516 10.7687 4.87943 11.0762 4.89172 11.4004C4.90402 11.7245 4.79342 12.0414 4.58207 12.2875C4.56461 12.3079 4.55553 12.3342 4.55666 12.3611C4.55778 12.388 4.56903 12.4135 4.58814 12.4324L5.80429 13.6486C5.8244 13.6687 5.85166 13.68 5.88008 13.68C5.9085 13.68 5.93576 13.6687 5.95587 13.6486L10.9274 8.67729C10.9989 8.60565 11.0528 8.51839 11.0848 8.42237V8.42237C11.1166 8.3262 11.1704 8.23877 11.2419 8.16701C11.3135 8.09526 11.4007 8.04115 11.4968 8.00899V8.00899C11.5927 7.97703 11.6799 7.92316 11.7514 7.85163L13.6899 5.91317C13.71 5.89306 13.7213 5.8658 13.7213 5.83738C13.7213 5.80896 13.71 5.7817 13.6899 5.76159L12.4737 4.54544C12.4548 4.52633 12.4293 4.51508 12.4024 4.51396C12.3756 4.51283 12.3492 4.52191 12.3288 4.53937C12.083 4.75085 11.7664 4.86175 11.4424 4.8499C11.1183 4.83804 10.8107 4.70431 10.581 4.47544V4.47544Z" stroke="white" stroke-opacity="0.65" stroke-width="0.881873" stroke-miterlimit="10"/>
<path d="M7.39652 4.32224L6.94153 3.86725" stroke="white" stroke-opacity="0.65" stroke-width="0.881873" stroke-miterlimit="10" stroke-linecap="round"/>
<path d="M8.60969 5.53532L8.30627 5.23218" stroke="white" stroke-opacity="0.65" stroke-width="0.881873" stroke-miterlimit="10" stroke-linecap="round"/>
<path d="M9.8228 6.74873L9.51965 6.44531" stroke="white" stroke-opacity="0.65" stroke-width="0.881873" stroke-miterlimit="10" stroke-linecap="round"/>
<path d="M11.1878 8.11344L10.7328 7.65845" stroke="white" stroke-opacity="0.65" stroke-width="0.881873" stroke-miterlimit="10" stroke-linecap="round"/>
</g>
<defs>
<clipPath id="clip0_211_3665">
<rect width="14.11" height="14.11" fill="white" transform="translate(0.493164 0.451904)"/>
</clipPath>
</defs>
</svg>
