<svg width="15" height="15" viewBox="0 0 15 15" fill="none" xmlns="http://www.w3.org/2000/svg">
<path d="M10.1937 4.7934H13.2803V7.87995" stroke="white" stroke-opacity="0.65" stroke-width="0.881873" stroke-linecap="round" stroke-linejoin="round"/>
<path d="M1.81592 10.9665L5.1607 7.62171C5.24259 7.5398 5.33981 7.47482 5.44682 7.43049C5.55383 7.38616 5.66852 7.36334 5.78435 7.36334C5.90017 7.36334 6.01486 7.38616 6.12187 7.43049C6.22888 7.47482 6.3261 7.5398 6.408 7.62171L7.80632 9.02003C7.88821 9.10194 7.98543 9.16692 8.09244 9.21125C8.19945 9.25558 8.31414 9.27839 8.42996 9.27839C8.54579 9.27839 8.66048 9.25558 8.76749 9.21125C8.8745 9.16692 8.97172 9.10194 9.05361 9.02003L12.8393 5.23431" stroke="white" stroke-opacity="0.65" stroke-width="0.881873" stroke-linecap="round" stroke-linejoin="round"/>
</svg>
